PathFileType	4	(X/Y/Z)	C:\Users\Biomechanik\SynologyDrive\AlexP\Athlete_03\Athlete_3_25_03_31\Walking_10\marker_experimental.trc
DataRate	CameraRate	NumFrames	NumMarkers	Units	OrigDataRate	OrigDataStartFrame	OrigNumFrames
200.000000	200.000000	4	53	mm	200.000000	139	223
Frame#	Time	GLAB			RFHD			LFHD			C7			T6			SPINMOL			SPINM2			SPINM3			T12			BELTOL			BELT2			BELT3			SACROL			SACR2			SACR3			LTHOL			LTH2			LTH3			LSHAOL			LSHA2			LSHA3			LHEE			LTOE			LM5			RTHOL			RTH2			RTH3			RSHAOL			RSHA2			RSHA3			RHEE			RTOE			RM5			STRN			XIPH			LACR			LUAOL			LUA2			LUA3			LLAOL			LLA2			LLA3			LWRR			LWRU			RACR			RUAOL			RUA2			RUA3			RLAOL			RLA2			RLA3			RWRR			RWRU			
		X1	Y1	Z1	X2	Y2	Z2	X3	Y3	Z3	X4	Y4	Z4	X5	Y5	Z5	X6	Y6	Z6	X7	Y7	Z7	X8	Y8	Z8	X9	Y9	Z9	X10	Y10	Z10	X11	Y11	Z11	X12	Y12	Z12	X13	Y13	Z13	X14	Y14	Z14	X15	Y15	Z15	X16	Y16	Z16	X17	Y17	Z17	X18	Y18	Z18	X19	Y19	Z19	X20	Y20	Z20	X21	Y21	Z21	X22	Y22	Z22	X23	Y23	Z23	X24	Y24	Z24	X25	Y25	Z25	X26	Y26	Z26	X27	Y27	Z27	X28	Y28	Z28	X29	Y29	Z29	X30	Y30	Z30	X31	Y31	Z31	X32	Y32	Z32	X33	Y33	Z33	X34	Y34	Z34	X35	Y35	Z35	X36	Y36	Z36	X37	Y37	Z37	X38	Y38	Z38	X39	Y39	Z39	X40	Y40	Z40	X41	Y41	Z41	X42	Y42	Z42	X43	Y43	Z43	X44	Y44	Z44	X45	Y45	Z45	X46	Y46	Z46	X47	Y47	Z47	X48	Y48	Z48	X49	Y49	Z49	X50	Y50	Z50	X51	Y51	Z51	X52	Y52	Z52	X53	Y53	Z53	

140	0.6950000000000001	492.3585510253905	1577.416870117188	165.4649963378907	442.2862243652342	1610.329467773438	226.9188690185548	453.2466735839843	1598.600708007812	89.20502471923837	261.5378417968748	1424.51513671875	158.5450286865235	202.9579772949218	1256.254028320312	164.3431091308594	195.7653198242186	1215.953002929688	144.6909484863282	188.0296936035155	1210.527587890625	194.1124420166016	197.9950256347655	1152.461547851562	163.2150268554688	219.5004577636718	1086.478515625	168.2206115722657	187.4064178466796	1051.12646484375	152.608383178711	184.7053070068359	1049.47998046875	203.1722564697266	181.348907470703	988.9917602539062	173.9455871582032	197.7459106445312	939.5784912109375	148.713623046875	196.0515136718749	934.9876708984375	199.7039947509766	184.1293487548827	877.529296875	168.9362487792969	377.4327392578124	660.3143310546875	-1.429553270339897	344.2740478515624	591.2144165039062	17.9213771820069	392.5736999511718	602.392333984375	12.29611396789558	436.9939270019531	316.4459838867188	15.53067111969002	393.47265625	250.1920166015625	24.48791313171394	443.3928527832031	255.1363983154297	24.11862564086922	381.3395690917969	64.70278930664065	114.6796875000001	601.8707275390625	47.123649597168	124.3036346435548	558.5150756835938	30.4184608459473	21.96375274658213	255.1489257812499	667.1918334960938	371.7658691406251	304.8936767578124	612.2647705078125	400.4357910156251	264.6413574218749	606.3931884765625	371.3674011230469	153.1013031005859	410.2145385742188	386.0513305664062	120.158966064453	338.5287170410156	380.3462829589844	102.7034759521483	381.7484436035156	363.1488952636719	-53.16412353515631	295.6616821289062	241.5071716308594	-25.66073608398443	87.58352661132812	256.1603393554688	-66.55788421630868	132.4656677246094	351.4635009765625	432.6960144042968	1324.2060546875	167.170623779297	449.4161071777343	1180.819458007812	177.2872619628907	343.8803405761718	1375.423583984375	-13.00592994689935	323.2908935546874	1215.756591796875	-106.3573455810546	302.2636718749999	1155.144897460938	-122.2690505981445	348.8969116210937	1155.062133789062	-101.2044067382812	308.6138916015624	951.9174194335938	-141.8161315917968	260.7362365722656	891.2212524414062	-123.7315292358398	307.4348144531249	890.0372924804688	-140.9324798583984	315.2083129882812	786.4564208984375	-143.3778991699218	357.9884033203124	782.2879638671875	-76.11858367919915	345.6390380859374	1387.106079101562	332.1266784667969	341.7364807128905	1243.1279296875	436.2155151367188	370.255401611328	1184.030517578125	444.9967346191407	321.8022460937499	1185.187255859375	461.7313232421876	405.8896484374998	971.7884521484375	489.3363342285157	480.2770080566405	945.9108276367188	503.9595642089845	441.0621643066405	920.420166015625	485.5165100097657	511.0037536621092	861.4862060546875	485.3724975585939	544.4121093749999	871.0253295898438	411.3609924316407	
141	0.7000000000000001	499.5689392089842	1578.479370117188	164.7464294433595	449.5378112792967	1611.521850585938	226.1761322021485	460.4908142089843	1599.660766601562	88.46755981445321	268.6026000976561	1425.780151367188	157.8992309570313	210.0294494628905	1257.454956054688	163.4751281738282	202.8815307617186	1217.155029296875	143.7562408447266	195.098175048828	1211.671508789062	193.1702728271485	205.1546783447265	1153.643676757812	162.2086029052735	226.7534790039062	1087.644653320312	167.1585083007813	194.5222625732421	1052.014404296875	151.2913208007813	191.7101440429687	1050.358764648438	201.8493041992188	188.5169982910155	989.8617553710938	172.60205078125	204.9772186279296	940.7862548828125	147.6172332763672	203.3621978759765	936.1027221679688	198.5898132324219	191.4006347656249	878.7032470703125	167.7493591308594	382.4305725097656	660.9526977539062	-1.804003238677908	348.4865112304687	592.2451171875	17.67881584167487	396.8643493652343	602.9253540039062	12.00613498687751	438.8492431640625	316.5316467285156	15.54578685760506	394.8680419921875	250.5878143310547	24.5781269073487	444.8314208984375	255.1705474853516	24.07189750671395	381.4849243164062	64.91654205322268	114.9032287597657	601.96826171875	46.92163848876957	124.4885635375978	558.4955444335938	30.52950477600101	21.9905071258546	265.8616638183593	667.251708984375	371.3868713378907	316.3923339843749	613.3065795898438	400.4266357421876	276.3502502441405	606.6634521484375	371.2375793457032	167.3780364990234	412.047119140625	385.6959533691407	133.938003540039	340.5927734375	379.8006896972656	116.8838958740233	383.9214477539062	362.5422058105469	-39.75463104248053	298.4669494628906	239.5238037109375	-11.08148002624517	90.39308166503906	256.4934997558594	-52.64641189575202	136.3468780517578	350.9453735351562	439.7172851562499	1325.401733398438	166.7901306152345	456.4747314453124	1182.041137695312	176.8384399414063	351.2987976074218	1376.712280273438	-13.51292324066156	331.8485717773437	1217.071166992188	-107.0519790649413	311.2059936523437	1156.39501953125	-123.1621856689453	357.6908569335937	1156.493041992188	-101.7497863769531	319.1799316406249	953.0051879882812	-142.7549896240234	271.8738708496093	891.7921752929688	-124.9106369018554	318.7071838378906	891.1198120117188	-141.7409057617187	327.6705627441406	787.6189575195312	-143.9031677246093	370.2179870605468	784.119384765625	-76.38407135009759	352.4407958984374	1388.302124023438	331.6199035644532	348.135040283203	1244.25439453125	435.6253356933594	376.4703674316405	1185.059448242188	444.3889465332032	328.0363464355468	1186.381225585938	461.1811218261719	410.1896667480467	972.3363647460938	489.0550537109376	484.1908569335936	945.5050048828125	504.098602294922	444.6961669921873	920.4776000976562	485.5670471191407	513.9126586914061	860.71484375	486.0083312988282	547.3276367187499	869.0532836914062	411.8610839843751	
142	0.705	506.7479858398436	1579.539428710938	164.0808715820313	456.7588806152342	1612.709594726562	225.488998413086	467.7056274414061	1600.725952148438	87.78370666503915	275.6273498535155	1427.046508789062	157.2986907958985	217.0642700195311	1258.658935546875	162.6269073486328	209.9603271484374	1218.361694335938	142.8403778076172	202.1277008056639	1212.81982421875	192.2474517822266	212.2763061523437	1154.830322265625	161.2200164794922	233.9659271240234	1088.82275390625	166.1201782226563	201.6395721435546	1052.9599609375	149.9736785888672	198.7104034423827	1051.297119140625	200.5249481201172	195.6682739257812	990.791748046875	171.2606964111328	212.1698303222655	942.0299072265625	146.5495300292969	210.6267547607421	937.2749633789062	197.5083465576172	198.6398468017577	879.9208984375	166.6148986816407	387.3398132324218	661.6068725585938	-2.175737142562795	352.5898742675781	593.3062744140625	17.41744613647467	401.0440368652343	603.4862060546875	11.7052307128907	440.6474304199219	316.6167602539062	15.53310680389412	396.2324523925781	250.9654083251953	24.59876441955574	446.2326965332031	255.207992553711	24.00587844848641	381.6174621582031	65.12934875488284	115.1128616333009	602.0568237304688	46.76170730590824	124.6460723876954	558.4784545898438	30.62387275695804	22.01505279541026	276.5093994140624	667.4285888671875	370.9996948242188	327.8193969726561	614.4862670898438	400.4055786132813	288.0110778808593	607.0654907226562	371.0876159667969	181.6234893798827	413.9377746582031	385.1915283203126	147.7440948486327	342.6888732910156	379.16845703125	131.0607604980468	386.0908508300781	361.8068237304688	-26.33694839477545	300.8460388183594	237.5374603271484	4.235359668731637	93.00029754638672	256.7564392089844	-38.03270721435554	139.8018035888672	350.4198913574219	446.697784423828	1326.60400390625	166.4451751708985	463.4983825683593	1183.272216796875	176.4081115722657	358.6560668945312	1378.015380859375	-13.98161315917962	340.3661193847656	1218.4072265625	-107.7137908935546	320.1254272460937	1157.665283203125	-124.0259475708007	366.4596252441406	1157.953491210938	-102.2672424316406	329.7853393554687	954.137451171875	-143.6789398193359	283.0675964355468	892.4026489257812	-126.0902633666992	330.0329895019531	892.25830078125	-142.5350036621093	340.2082214355468	788.852294921875	-144.418716430664	382.5087890624999	786.0256958007812	-76.64160919189446	359.1840820312499	1389.478271484375	331.1613769531251	354.4627380371093	1245.355712890625	435.0730590820313	382.626983642578	1186.069702148438	443.8273620605469	334.2074279785155	1187.548095703125	460.6699523925782	414.4442749023436	972.8974609375	488.8271179199219	488.0487060546873	945.1290283203125	504.2803039550782	448.2817077636717	920.5593872070312	485.6691589355469	516.7598876953124	859.9845581054688	486.6928710937501	550.1536865234374	867.1314086914062	412.4139404296876	
143	0.71	513.8962402343749	1580.5947265625	163.4692382812501	463.9488220214842	1613.888671875	224.8589630126954	474.8920593261718	1601.795166015625	87.1544952392579	282.6145019531248	1428.310546875	156.7400360107422	224.0656280517577	1259.861694335938	161.7987213134766	217.0049896240233	1219.56884765625	141.9444580078125	209.1217803955077	1213.969116210938	191.3455047607422	219.3637390136718	1156.017578125	160.251449584961	241.1410064697265	1090.010375976562	165.1074981689454	208.7585906982421	1053.970458984375	148.6674041748047	205.7086181640624	1052.301879882812	199.2112579345703	202.8012237548827	991.7891845703125	169.9328308105469	219.3242187499999	943.3045654296875	145.525375366211	217.8480072021484	938.5004272460938	196.4748840332032	205.8503112792968	881.1774291992188	165.5494384765625	392.1676025390624	662.2780151367188	-2.549166917800831	356.5885314941406	594.4026489257812	17.13806724548346	405.1200256347656	604.0747680664062	11.38914108276375	442.3912353515625	316.7023315429688	15.49395084381112	397.5666198730469	251.3253479003907	24.54563903808601	447.5983581542969	255.2496795654297	23.92307090759286	381.7393493652344	65.34409332275393	115.3087539672852	602.1378173828125	46.63635253906254	124.7775039672853	558.4638671875	30.69992256164554	22.03629875183116	287.0984802246093	667.7122802734375	370.6113281250001	339.1839599609374	615.7899169921875	400.3696289062501	299.6256713867186	607.587890625	370.9235534667969	195.8315429687499	415.8682861328125	384.5381469726563	161.5700378417968	344.7967834472656	378.4649353027344	145.2283782958984	388.2339172363281	360.9452514648438	-12.89978790283209	302.7854919433594	235.5668182373047	20.24180412292475	95.38194274902344	256.9414978027344	-22.77858734130866	142.8008575439453	349.8794860839844	453.6400451660155	1327.812622070312	166.1306304931641	470.490264892578	1184.51123046875	175.9922332763673	365.9509887695312	1379.331176757812	-14.41570091247552	348.8370666503906	1219.763061523438	-108.3453216552734	329.0170288085937	1158.952392578125	-124.8601531982421	375.1988830566406	1159.4423828125	-102.7596740722656	340.4259948730468	955.3148803710938	-144.5838317871093	294.3125915527343	893.0549926757812	-127.265022277832	341.4063110351562	893.4539184570312	-143.3118896484374	352.8128967285156	790.15869140625	-144.9219970703124	394.8529663085937	788.0087890625	-76.89099121093743	365.8727111816405	1390.633666992188	330.7471618652344	360.719268798828	1246.431274414062	434.5569763183594	388.7218017578124	1187.059326171875	443.3107604980469	340.3112792968749	1188.686645507812	460.1937561035157	418.6529541015623	973.47265625	488.6506652832032	491.8505249023436	944.7842407226562	504.502410888672	451.8186645507811	920.6656494140625	485.8216247558594	519.5451660156249	859.2952880859375	487.4239807128907	552.8955688476561	865.2669677734375	413.0192260742189	
